<svg width="1739" height="2310" viewBox="0 0 1739 2310" fill="none" xmlns="http://www.w3.org/2000/svg">
<path fill-rule="evenodd" clip-rule="evenodd" d="M741.97 433.267V573.237C735.815 565.711 728.351 557.089 719.312 547.104C689.427 514.778 627.815 480.319 624.722 413.533C620.173 368.526 658.978 349.207 693.56 370.837C706.763 378.511 706.614 403.341 705.217 433.267H742H741.97ZM491.595 324.585H571.227C538.518 376.852 537.15 429.385 556.092 482.067C559.601 494.659 569.087 512.378 608.1 555.489C637.984 587.815 699.597 622.274 702.689 689.059C707.269 734.067 667.482 754.007 632.929 732.407C617.437 723.4 616.783 690.363 618.507 653.533L542.681 653.622C541.64 693.83 541.64 733.237 557.817 760.319L558.501 761H503.787C513.391 744.17 518.893 724.763 518.893 704.141V398.837C518.893 370.63 508.604 344.704 491.625 324.585H491.595ZM393.11 361.859H402.804C423.233 361.859 439.914 378.511 439.914 398.837V704.141C439.914 724.496 423.203 741.118 402.804 741.118H393.11C372.682 741.118 356 724.467 356 704.141V398.837C356 378.481 372.711 361.859 393.11 361.859ZM660.256 291.341L679.347 269H725.586L684.253 317.178H636.26L592.102 269H640.096L660.256 291.341Z" fill="#0F74E3" fill-opacity="0.15"/>
<path fill-rule="evenodd" clip-rule="evenodd" d="M218.008 560.741V599.716C219.715 597.621 221.783 595.22 224.289 592.439C232.573 583.438 249.652 573.843 250.51 555.246C251.771 542.714 241.014 537.334 231.428 543.357C227.768 545.494 227.809 552.408 228.196 560.741H218H218.008ZM287.413 530.478H265.338C274.406 545.032 274.785 559.66 269.534 574.33C268.561 577.836 265.932 582.77 255.117 594.774C246.833 603.776 229.754 613.371 228.897 631.968C227.628 644.5 238.657 650.053 248.235 644.038C252.529 641.53 252.711 632.331 252.232 622.075L273.252 622.1C273.54 633.296 273.54 644.269 269.056 651.81L268.866 652H284.033C281.371 647.314 279.846 641.91 279.846 636.167V551.154C279.846 543.299 282.698 536.08 287.405 530.478H287.413ZM314.713 540.857H312.026C306.363 540.857 301.739 545.494 301.739 551.154V636.167C301.739 641.835 306.371 646.464 312.026 646.464H314.713C320.376 646.464 325 641.827 325 636.167V551.154C325 545.486 320.368 540.857 314.713 540.857ZM240.66 521.221L235.368 515H222.55L234.008 528.415H247.311L259.552 515H246.248L240.66 521.221Z" fill="#0F74E3" fill-opacity="0.15"/>
<path fill-rule="evenodd" clip-rule="evenodd" d="M324.989 376.435V429.635C322.661 426.774 319.838 423.497 316.418 419.702C305.115 407.416 281.811 394.318 280.641 368.934C278.92 351.828 293.598 344.485 306.678 352.706C311.672 355.623 311.616 365.06 311.087 376.435H325H324.989ZM230.287 335.127H260.407C248.035 354.992 247.518 374.959 254.682 394.983C256.01 399.769 259.597 406.503 274.354 422.889C285.657 435.176 308.961 448.273 310.131 473.657C311.863 490.763 296.815 498.342 283.745 490.132C277.885 486.709 277.638 474.152 278.29 460.154L249.61 460.188C249.216 475.47 249.216 490.448 255.335 500.741L255.593 501H234.899C238.531 494.603 240.612 487.227 240.612 479.389V363.349C240.612 352.628 236.721 342.774 230.299 335.127H230.287ZM193.037 349.294H196.703C204.43 349.294 210.74 355.623 210.74 363.349V479.389C210.74 487.126 204.419 493.443 196.703 493.443H193.037C185.31 493.443 179 487.114 179 479.389V363.349C179 355.612 185.321 349.294 193.037 349.294ZM294.081 322.491L301.302 314H318.792L303.158 332.311H285.005L268.303 314H286.456L294.081 322.491Z" fill="#0F74E3" fill-opacity="0.15"/>
<path fill-rule="evenodd" clip-rule="evenodd" d="M730.012 669.773V725.818C732.468 722.805 735.445 719.353 739.052 715.355C750.975 702.411 775.556 688.613 776.79 661.872C778.605 643.851 763.123 636.116 749.326 644.776C744.058 647.849 744.118 657.791 744.675 669.773H730H730.012ZM829.902 626.257H798.132C811.182 647.185 811.728 668.219 804.171 689.313C802.771 694.355 798.986 701.45 783.421 718.712C771.498 731.656 746.917 745.453 745.684 772.194C743.857 790.216 759.73 798.2 773.515 789.551C779.696 785.945 779.957 772.716 779.269 757.97L809.521 758.005C809.936 774.105 809.936 789.884 803.482 800.727L803.21 801H825.038C821.207 794.261 819.012 786.49 819.012 778.233V655.988C819.012 644.693 823.117 634.312 829.891 626.257H829.902ZM869.194 641.181H865.327C857.177 641.181 850.521 647.849 850.521 655.988V778.233C850.521 786.384 857.189 793.039 865.327 793.039H869.194C877.345 793.039 884 786.372 884 778.233V655.988C884 647.837 877.333 641.181 869.194 641.181ZM762.613 612.945L754.996 604H736.549L753.039 623.291H772.187L789.804 604H770.656L762.613 612.945Z" fill="#0F74E3" fill-opacity="0.15"/>
<path fill-rule="evenodd" clip-rule="evenodd" d="M715.985 856.472V929.302C712.795 925.386 708.928 920.9 704.244 915.704C688.76 898.884 656.837 880.954 655.234 846.204C652.877 822.786 672.983 812.734 690.902 823.988C697.743 827.981 697.666 840.901 696.941 856.472H716H715.985ZM586.257 799.922H627.517C610.569 827.118 609.86 854.452 619.675 881.864C621.493 888.416 626.408 897.636 646.622 920.067C662.106 936.887 694.029 954.817 695.632 989.567C698.004 1012.99 677.39 1023.36 659.487 1012.12C651.46 1007.44 651.121 990.246 652.014 971.082L612.726 971.129C612.187 992.05 612.187 1012.55 620.568 1026.65L620.923 1027H592.573C597.55 1018.24 600.4 1008.14 600.4 997.415V838.557C600.4 823.88 595.069 810.391 586.272 799.922H586.257ZM535.228 819.317H540.251C550.836 819.317 559.479 827.981 559.479 838.557V997.415C559.479 1008.01 550.82 1016.66 540.251 1016.66H535.228C524.643 1016.66 516 1007.99 516 997.415V838.557C516 827.966 524.659 819.317 535.228 819.317ZM673.646 782.624L683.537 771H707.495L686.079 796.068H661.212L638.333 771H663.2L673.646 782.624Z" fill="#0F74E3" fill-opacity="0.15"/>
<path fill-rule="evenodd" clip-rule="evenodd" d="M356.008 805.743V845.572C357.747 843.43 359.854 840.977 362.407 838.135C370.846 828.937 388.244 819.131 389.117 800.127C390.402 787.32 379.444 781.823 369.679 787.978C365.95 790.162 365.992 797.227 366.387 805.743H356H356.008ZM426.71 774.817H404.223C413.46 789.69 413.846 804.638 408.497 819.629C407.507 823.212 404.828 828.254 393.811 840.521C385.372 849.72 367.974 859.525 367.101 878.529C365.808 891.336 377.043 897.01 386.8 890.864C391.175 888.301 391.359 878.9 390.872 868.42L412.284 868.445C412.578 879.886 412.578 891.1 408.01 898.806L407.817 899H423.267C420.555 894.211 419.002 888.689 419.002 882.821V795.945C419.002 787.919 421.907 780.542 426.702 774.817H426.71ZM454.521 785.423H451.783C446.015 785.423 441.304 790.162 441.304 795.945V882.821C441.304 888.613 446.023 893.343 451.783 893.343H454.521C460.289 893.343 465 888.604 465 882.821V795.945C465 790.153 460.281 785.423 454.521 785.423ZM379.083 765.357L373.692 759H360.635L372.307 772.709H385.859L398.329 759H384.776L379.083 765.357Z" fill="#0F74E3" fill-opacity="0.15"/>
<path fill-rule="evenodd" clip-rule="evenodd" d="M341.978 837.202V943.033C337.353 937.343 331.746 930.823 324.954 923.274C302.502 898.832 256.213 872.777 253.89 822.281C250.472 788.251 279.626 773.645 305.608 789.999C315.527 795.801 315.415 814.575 314.365 837.202H342H341.978ZM153.872 755.028H213.699C189.125 794.547 188.097 834.267 202.328 874.099C204.964 883.62 212.091 897.017 241.401 929.614C263.853 954.055 310.143 980.11 312.466 1030.61C315.906 1064.64 286.015 1079.71 260.056 1063.38C248.416 1056.57 247.925 1031.59 249.221 1003.74L192.253 1003.81C191.471 1034.21 191.471 1064.01 203.624 1084.48L204.138 1085H163.032C170.247 1072.28 174.38 1057.6 174.38 1042.01V811.169C174.38 789.842 166.651 770.239 153.894 755.028H153.872ZM79.8807 783.211H87.1637C102.512 783.211 115.044 795.801 115.044 811.169V1042.01C115.044 1057.4 102.489 1069.97 87.1637 1069.97H79.8807C64.5329 1069.97 52 1057.38 52 1042.01V811.169C52 795.779 64.5553 783.211 79.8807 783.211ZM280.586 729.892L294.929 713H329.668L298.615 749.427H262.558L229.382 713H265.44L280.586 729.892Z" fill="#0F74E3" fill-opacity="0.15"/>
<path fill-rule="evenodd" clip-rule="evenodd" d="M297.016 138.143V213.249C300.301 209.211 304.284 204.584 309.108 199.226C325.057 181.881 357.938 163.39 359.589 127.554C362.017 103.404 341.307 93.0381 322.851 104.644C315.805 108.762 315.885 122.085 316.63 138.143H297H297.016ZM430.636 79.8262H388.138C405.594 107.872 406.324 136.06 396.215 164.328C394.343 171.085 389.28 180.593 368.46 203.726C352.511 221.071 319.63 239.562 317.979 275.398C315.535 299.548 336.769 310.248 355.209 298.658C363.477 293.824 363.826 276.097 362.905 256.335L403.372 256.383C403.928 277.957 403.928 299.103 395.295 313.634L394.93 314H424.129C419.004 304.969 416.068 294.556 416.068 283.49V119.669C416.068 104.533 421.559 90.6215 430.62 79.8262H430.636ZM483.195 99.8269H478.022C467.119 99.8269 458.217 108.762 458.217 119.669V283.49C458.217 294.413 467.135 303.332 478.022 303.332H483.195C494.097 303.332 503 294.397 503 283.49V119.669C503 108.746 494.081 99.8269 483.195 99.8269ZM340.625 61.9877L330.437 50H305.76L327.818 75.8515H353.431L376.997 50H351.384L340.625 61.9877Z" fill="#0F74E3" fill-opacity="0.15"/>
<path fill-rule="evenodd" clip-rule="evenodd" d="M1378.97 143.9V266.517C1373.62 259.924 1367.12 252.371 1359.25 243.623C1333.24 215.305 1279.61 185.118 1276.91 126.614C1272.95 87.1863 1306.73 70.263 1336.83 89.2109C1348.33 95.9335 1348.2 117.685 1346.98 143.9H1379H1378.97ZM1161.03 48.6935H1230.35C1201.88 94.48 1200.69 140.5 1217.17 186.65C1220.23 197.681 1228.48 213.203 1262.44 250.969C1288.46 279.287 1342.09 309.474 1344.78 367.979C1348.77 407.406 1314.13 424.874 1284.06 405.952C1270.57 398.062 1270 369.121 1271.5 336.857L1205.5 336.935C1204.59 372.158 1204.59 406.679 1218.67 430.403L1219.27 431H1171.64C1180 416.257 1184.79 399.256 1184.79 381.19V113.739C1184.79 89.0292 1175.84 66.3177 1161.06 48.6935H1161.03ZM1075.3 81.3462H1083.74C1101.52 81.3462 1116.04 95.9335 1116.04 113.739V381.19C1116.04 399.022 1101.5 413.583 1083.74 413.583H1075.3C1057.52 413.583 1043 398.996 1043 381.19V113.739C1043 95.9076 1057.55 81.3462 1075.3 81.3462ZM1307.84 19.5709L1324.46 0H1364.71L1328.73 42.2045H1286.96L1248.52 0H1290.3L1307.84 19.5709Z" fill="#0F74E3" fill-opacity="0.15"/>
<path fill-rule="evenodd" clip-rule="evenodd" d="M849.013 130.117V191.567C851.692 188.263 854.94 184.478 858.875 180.094C871.881 165.902 898.697 150.774 900.043 121.454C902.023 101.694 885.134 93.213 870.083 102.709C864.336 106.078 864.401 116.979 865.009 130.117H849H849.013ZM957.985 82.4033H923.326C937.562 105.35 938.157 128.413 929.913 151.541C928.386 157.07 924.258 164.849 907.278 183.776C894.271 197.967 867.455 213.096 866.109 242.416C864.116 262.176 881.433 270.93 896.471 261.447C903.214 257.493 903.499 242.989 902.748 226.82L935.75 226.859C936.203 244.511 936.203 261.811 929.163 273.701L928.865 274H952.678C948.498 266.611 946.104 258.091 946.104 249.037V115.002C946.104 102.618 950.582 91.2358 957.972 82.4033H957.985ZM1000.85 98.7675H996.629C987.738 98.7675 980.478 106.078 980.478 115.002V249.037C980.478 257.974 987.751 265.272 996.629 265.272H1000.85C1009.74 265.272 1017 257.961 1017 249.037V115.002C1017 106.065 1009.73 98.7675 1000.85 98.7675ZM884.578 67.8081L876.269 58H856.144L874.133 79.1512H895.022L914.241 58H893.352L884.578 67.8081Z" fill="#0F74E3" fill-opacity="0.15"/>
<path fill-rule="evenodd" clip-rule="evenodd" d="M615.994 176.059V206.784C614.654 205.132 613.03 203.239 611.063 201.047C604.559 193.951 591.151 186.387 590.478 171.727C589.488 161.847 597.933 157.607 605.459 162.354C608.332 164.039 608.3 169.489 607.995 176.059H616H615.994ZM561.508 152.202H578.837C571.719 163.675 571.421 175.207 575.543 186.771C576.307 189.535 578.371 193.424 586.861 202.888C593.364 209.984 606.772 217.548 607.445 232.208C608.442 242.088 599.784 246.465 592.264 241.724C588.893 239.746 588.751 232.494 589.126 224.41L572.625 224.429C572.398 233.255 572.398 241.906 575.919 247.85L576.067 248H564.161C566.251 244.306 567.448 240.046 567.448 235.519V168.501C567.448 162.309 565.209 156.618 561.514 152.202H561.508ZM540.076 160.384H542.185C546.631 160.384 550.261 164.039 550.261 168.501V235.519C550.261 239.987 546.624 243.636 542.185 243.636H540.076C535.63 243.636 532 239.98 532 235.519V168.501C532 164.033 535.637 160.384 540.076 160.384ZM598.211 144.904L602.366 140H612.428L603.433 150.576H592.989L583.38 140H593.824L598.211 144.904Z" fill="#0F74E3" fill-opacity="0.15"/>
<path fill-rule="evenodd" clip-rule="evenodd" d="M862.99 317.093V365.741C860.869 363.125 858.297 360.128 855.183 356.658C844.886 345.423 823.656 333.446 822.591 310.234C821.023 294.591 834.394 287.877 846.31 295.395C850.859 298.062 850.808 306.692 850.326 317.093H863H862.99ZM776.721 279.319H804.159C792.888 297.485 792.417 315.744 798.944 334.054C800.153 338.43 803.421 344.589 816.863 359.572C827.16 370.808 848.39 382.784 849.455 405.996C851.033 421.639 837.324 428.57 825.419 421.062C820.081 417.932 819.855 406.449 820.449 393.649L794.323 393.68C793.964 407.654 793.964 421.351 799.538 430.763L799.774 431H780.921C784.231 425.151 786.126 418.405 786.126 411.238V305.126C786.126 295.322 782.581 286.312 776.731 279.319H776.721ZM742.787 292.274H746.127C753.166 292.274 758.913 298.062 758.913 305.126V411.238C758.913 418.313 753.155 424.09 746.127 424.09H742.787C735.748 424.09 730 418.302 730 411.238V305.126C730 298.051 735.758 292.274 742.787 292.274ZM834.834 267.765L841.412 260H857.344L843.103 276.745H826.566L811.351 260H827.888L834.834 267.765Z" fill="#0F74E3" fill-opacity="0.15"/>
<path fill-rule="evenodd" clip-rule="evenodd" d="M881.004 322.041V343.378C881.929 342.23 883.051 340.916 884.409 339.394C888.9 334.466 898.157 329.213 898.622 319.033C899.306 312.172 893.475 309.227 888.278 312.524C886.295 313.694 886.317 317.479 886.527 322.041H881H881.004ZM918.626 305.473H906.66C911.575 313.441 911.781 321.449 908.934 329.48C908.407 331.399 906.982 334.1 901.12 340.672C896.629 345.6 887.371 350.853 886.907 361.033C886.219 367.894 892.197 370.934 897.389 367.641C899.717 366.268 899.815 361.232 899.556 355.618L910.949 355.631C911.106 361.761 911.106 367.768 908.675 371.896L908.572 372H916.794C915.351 369.435 914.524 366.476 914.524 363.332V316.792C914.524 312.492 916.07 308.54 918.621 305.473H918.626ZM933.424 311.155H931.967C928.898 311.155 926.391 313.694 926.391 316.792V363.332C926.391 366.435 928.902 368.969 931.967 368.969H933.424C936.493 368.969 939 366.431 939 363.332V316.792C939 313.689 936.489 311.155 933.424 311.155ZM893.283 300.406L890.414 297H883.466L889.677 304.344H896.888L903.524 297H896.312L893.283 300.406Z" fill="#0F74E3" fill-opacity="0.15"/>
<path fill-rule="evenodd" clip-rule="evenodd" d="M763.008 493.07V529.769C764.602 527.796 766.536 525.536 768.878 522.917C776.62 514.442 792.582 505.407 793.383 487.896C794.562 476.095 784.508 471.03 775.549 476.701C772.129 478.713 772.167 485.223 772.529 493.07H763H763.008ZM827.872 464.574H807.242C815.716 478.278 816.07 492.052 811.163 505.865C810.254 509.167 807.796 513.812 797.689 525.116C789.947 533.592 773.985 542.627 773.184 560.137C771.998 571.938 782.305 577.167 791.257 571.503C795.27 569.141 795.44 560.479 794.993 550.823L814.637 550.846C814.907 561.388 814.907 571.721 810.716 578.821L810.539 579H824.713C822.225 574.587 820.8 569.499 820.8 564.092V484.043C820.8 476.647 823.465 469.849 827.864 464.574H827.872ZM853.386 474.347H850.875C845.582 474.347 841.261 478.713 841.261 484.043V564.092C841.261 569.429 845.59 573.787 850.875 573.787H853.386C858.678 573.787 863 569.421 863 564.092V484.043C863 478.706 858.671 474.347 853.386 474.347ZM784.177 455.858L779.231 450H767.252L777.96 462.632H790.394L801.834 450H789.4L784.177 455.858Z" fill="#0F74E3" fill-opacity="0.15"/>
<path fill-rule="evenodd" clip-rule="evenodd" d="M1132.98 531.156V613.09C1129.43 608.685 1125.11 603.637 1119.89 597.792C1102.63 578.87 1067.03 558.699 1065.25 519.605C1062.62 493.259 1085.04 481.951 1105.02 494.612C1112.64 499.104 1112.56 513.638 1111.75 531.156H1133H1132.98ZM988.336 467.538H1034.34C1015.44 498.133 1014.65 528.884 1025.6 559.722C1027.62 567.093 1033.1 577.465 1055.64 602.701C1072.91 621.623 1108.5 641.795 1110.29 680.888C1112.93 707.234 1089.95 718.907 1069.99 706.263C1061.04 700.99 1060.66 681.651 1061.66 660.093L1017.85 660.145C1017.25 683.681 1017.25 706.749 1026.59 722.601L1026.99 723H995.379C1000.93 713.149 1004.11 701.788 1004.11 689.717V511.002C1004.11 494.491 998.162 479.314 988.353 467.538H988.336ZM931.439 489.357H937.04C948.842 489.357 958.479 499.104 958.479 511.002V689.717C958.479 701.632 948.824 711.362 937.04 711.362H931.439C919.637 711.362 910 701.615 910 689.717V511.002C910 499.087 919.655 489.357 931.439 489.357ZM1085.78 448.078L1096.8 435H1123.52L1099.64 463.202H1071.91L1046.4 435H1074.13L1085.78 448.078Z" fill="#0F74E3" fill-opacity="0.15"/>
<path fill-rule="evenodd" clip-rule="evenodd" d="M1154.05 723.41V938.486C1163.37 926.922 1174.69 913.673 1188.39 898.33C1233.68 848.659 1327.05 795.709 1331.74 693.088C1338.63 623.93 1279.82 594.246 1227.41 627.481C1207.4 639.273 1207.63 677.426 1209.75 723.41H1154H1154.05ZM1533.5 556.411H1412.81C1462.39 636.724 1464.46 717.446 1435.75 798.395C1430.43 817.745 1416.06 844.971 1356.93 911.215C1311.64 960.886 1218.26 1013.84 1213.58 1116.46C1206.64 1185.61 1266.94 1216.26 1319.3 1183.07C1342.78 1169.22 1343.77 1118.46 1341.16 1061.87L1456.08 1062C1457.65 1123.79 1457.65 1184.34 1433.14 1225.95L1432.1 1227H1515.02C1500.47 1201.14 1492.13 1171.32 1492.13 1139.63V670.506C1492.13 627.163 1507.72 587.325 1533.45 556.411H1533.5ZM1682.76 613.686H1668.07C1637.11 613.686 1611.82 639.273 1611.82 670.506V1139.63C1611.82 1170.91 1637.15 1196.45 1668.07 1196.45H1682.76C1713.72 1196.45 1739 1170.86 1739 1139.63V670.506C1739 639.228 1713.67 613.686 1682.76 613.686ZM1277.89 505.328L1248.95 471H1178.88L1241.52 545.029H1314.25L1381.18 471H1308.44L1277.89 505.328Z" fill="#0F74E3" fill-opacity="0.15"/>
<path fill-rule="evenodd" clip-rule="evenodd" d="M300.714 1766.04H500.713C489.959 1774.72 477.639 1785.24 463.372 1797.98C417.182 1840.09 367.945 1926.92 272.518 1931.28C208.209 1937.69 180.605 1883.01 211.511 1834.27C222.476 1815.66 257.954 1815.87 300.714 1817.84V1766V1766.04ZM145.424 2118.9L145.424 2006.67C220.105 2052.77 295.168 2054.7 370.443 2028.01C388.436 2023.06 413.753 2009.69 475.353 1954.71C521.542 1912.59 570.78 1825.76 666.207 1821.4C730.516 1814.95 759.009 1871.02 728.145 1919.72C715.275 1941.55 668.069 1942.47 615.445 1940.04L615.572 2046.91C673.023 2048.37 729.331 2048.37 768.026 2025.57L769 2024.61V2101.72C744.953 2088.18 717.222 2080.43 687.756 2080.43H251.519C211.215 2080.43 174.17 2094.93 145.424 2118.86V2118.9ZM198.683 2257.7V2244.04C198.683 2215.25 222.476 2191.74 251.519 2191.74H687.756C716.841 2191.74 740.592 2215.29 740.592 2244.04V2257.7C740.592 2286.49 716.799 2310 687.756 2310H251.519C222.434 2310 198.683 2286.45 198.683 2257.7ZM97.9218 1881.2L66 1854.3L66 1789.13L134.839 1847.38L134.839 1915.02L66 1977.26L66 1909.62L97.9218 1881.2Z" fill="#0F74E3" fill-opacity="0.15"/>
<path fill-rule="evenodd" clip-rule="evenodd" d="M1144.05 2123.97H995.83C1003.8 2117.54 1012.93 2109.75 1023.5 2100.31C1057.74 2069.11 1094.23 2004.79 1164.95 2001.56C1212.61 1996.81 1233.06 2037.32 1210.16 2073.43C1202.03 2087.21 1175.74 2087.06 1144.05 2085.6V2124V2123.97ZM1259.14 1862.57V1945.71C1203.79 1911.56 1148.16 1910.13 1092.37 1929.9C1079.04 1933.57 1060.28 1943.47 1014.62 1984.2C980.393 2015.4 943.903 2079.73 873.181 2082.96C825.521 2087.74 804.405 2046.2 827.278 2010.13C836.816 1993.95 871.801 1993.27 910.801 1995.07L910.707 1915.9C868.13 1914.82 826.399 1914.82 797.722 1931.7L797 1932.42V1875.3C814.822 1885.32 835.373 1891.07 857.211 1891.07H1180.51C1210.38 1891.07 1237.83 1880.32 1259.14 1862.6V1862.57ZM1219.67 1759.74V1769.87C1219.67 1791.19 1202.03 1808.61 1180.51 1808.61H857.211C835.655 1808.61 818.053 1791.16 818.053 1769.87V1759.74C818.053 1738.42 835.687 1721 857.211 1721H1180.51C1202.07 1721 1219.67 1738.45 1219.67 1759.74ZM1294.34 2038.66L1318 2058.59V2106.86L1266.98 2063.71V2013.6L1318 1967.5V2017.61L1294.34 2038.66Z" fill="#0F74E3" fill-opacity="0.15"/>
<path fill-rule="evenodd" clip-rule="evenodd" d="M932.985 986.534V917.118C929.972 920.851 926.317 925.127 921.891 930.079C907.258 946.11 877.091 963.2 875.576 996.321C873.349 1018.64 892.349 1028.22 909.282 1017.5C915.747 1013.69 915.674 1001.38 914.99 986.534H933H932.985ZM810.392 1040.43H849.383C833.368 1014.51 832.698 988.459 841.972 962.333C843.691 956.088 848.335 947.3 867.437 925.92C882.07 909.889 912.238 892.799 913.752 859.678C915.994 837.357 896.513 827.468 879.595 838.18C872.009 842.647 871.689 859.031 872.533 877.296L835.406 877.252C834.896 857.312 834.896 837.769 842.817 824.338L843.152 824H816.362C821.065 832.346 823.758 841.971 823.758 852.198V1003.61C823.758 1017.6 818.721 1030.46 810.407 1040.43H810.392ZM762.171 1021.95H766.917C776.92 1021.95 785.088 1013.69 785.088 1003.61V852.198C785.088 842.103 776.905 833.86 766.917 833.86H762.171C752.168 833.86 744 842.118 744 852.198V1003.61C744 1013.7 752.183 1021.95 762.171 1021.95ZM892.975 1056.92L902.323 1068H924.963L904.725 1044.11H881.226L859.604 1068H883.104L892.975 1056.92Z" fill="#0F74E3" fill-opacity="0.15"/>
<path fill-rule="evenodd" clip-rule="evenodd" d="M251.03 1380.73L251.03 1240.76C257.185 1248.29 264.649 1256.91 273.688 1266.9C303.573 1299.22 365.185 1333.68 368.278 1400.47C372.827 1445.47 334.022 1464.79 299.44 1443.16C286.237 1435.49 286.386 1410.66 287.783 1380.73H251H251.03ZM501.405 1489.41H421.773C454.482 1437.15 455.85 1384.61 436.908 1331.93C433.399 1319.34 423.913 1301.62 384.9 1258.51C355.016 1226.19 293.403 1191.73 290.311 1124.94C285.731 1079.93 325.518 1059.99 360.071 1081.59C375.563 1090.6 376.217 1123.64 374.493 1160.47L450.319 1160.38C451.36 1120.17 451.36 1080.76 435.183 1053.68L434.499 1053H489.213C479.609 1069.83 474.107 1089.24 474.107 1109.86L474.107 1415.16C474.107 1443.37 484.396 1469.3 501.375 1489.41H501.405ZM599.89 1452.14H590.196C569.767 1452.14 553.086 1435.49 553.086 1415.16V1109.86C553.086 1089.5 569.797 1072.88 590.196 1072.88H599.89C620.318 1072.88 637 1089.53 637 1109.86V1415.16C637 1435.52 620.289 1452.14 599.89 1452.14ZM332.744 1522.66L313.653 1545H267.414L308.747 1496.82H356.74L400.898 1545H352.904L332.744 1522.66Z" fill="#0F74E3" fill-opacity="0.15"/>
<path fill-rule="evenodd" clip-rule="evenodd" d="M834.986 1570.79V1637.08C832.084 1633.52 828.565 1629.43 824.302 1624.7C810.212 1609.39 781.161 1593.08 779.703 1561.45C777.558 1540.13 795.855 1530.98 812.161 1541.23C818.386 1544.86 818.316 1556.62 817.657 1570.79H835H834.986ZM716.933 1519.32H754.48C739.058 1544.08 738.413 1568.95 747.344 1593.9C748.998 1599.87 753.471 1608.26 771.866 1628.67C785.956 1643.98 815.007 1660.3 816.465 1691.93C818.624 1713.24 799.865 1722.69 783.573 1712.46C776.268 1708.19 775.96 1692.55 776.773 1675.11L741.021 1675.15C740.53 1694.19 740.53 1712.85 748.157 1725.68L748.48 1726H722.682C727.21 1718.03 729.804 1708.84 729.804 1699.07V1554.49C729.804 1541.13 724.953 1528.85 716.947 1519.32H716.933ZM670.498 1536.98H675.068C684.7 1536.98 692.566 1544.86 692.566 1554.49V1699.07C692.566 1708.71 684.686 1716.58 675.068 1716.58H670.498C660.865 1716.58 653 1708.7 653 1699.07V1554.49C653 1544.85 660.88 1536.98 670.498 1536.98ZM796.458 1503.58L805.459 1493H827.261L807.772 1515.82H785.143L764.323 1493H786.952L796.458 1503.58Z" fill="#0F74E3" fill-opacity="0.15"/>
<path fill-rule="evenodd" clip-rule="evenodd" d="M665.012 1102.77V1158.82C667.468 1155.81 670.445 1152.35 674.052 1148.35C685.975 1135.41 710.556 1121.61 711.79 1094.87C713.605 1076.85 698.123 1069.12 684.326 1077.78C679.058 1080.85 679.118 1090.79 679.675 1102.77H665H665.012ZM764.902 1059.26H733.132C746.182 1080.18 746.728 1101.22 739.171 1122.31C737.771 1127.36 733.986 1134.45 718.421 1151.71C706.498 1164.66 681.917 1178.45 680.684 1205.19C678.857 1223.22 694.73 1231.2 708.515 1222.55C714.696 1218.94 714.957 1205.72 714.269 1190.97L744.521 1191.01C744.936 1207.1 744.936 1222.88 738.482 1233.73L738.21 1234H760.038C756.207 1227.26 754.012 1219.49 754.012 1211.23V1088.99C754.012 1077.69 758.117 1067.31 764.891 1059.26H764.902ZM804.194 1074.18H800.327C792.177 1074.18 785.521 1080.85 785.521 1088.99V1211.23C785.521 1219.38 792.189 1226.04 800.327 1226.04H804.194C812.345 1226.04 819 1219.37 819 1211.23V1088.99C819 1080.84 812.333 1074.18 804.194 1074.18ZM697.613 1045.95L689.996 1037H671.549L688.039 1056.29H707.187L724.804 1037H705.656L697.613 1045.95Z" fill="#0F74E3" fill-opacity="0.15"/>
<path fill-rule="evenodd" clip-rule="evenodd" d="M906.985 1312.47V1385.3C903.795 1381.39 899.928 1376.9 895.244 1371.7C879.76 1354.88 847.837 1336.95 846.234 1302.2C843.877 1278.79 863.983 1268.73 881.902 1279.99C888.743 1283.98 888.666 1296.9 887.941 1312.47H907H906.985ZM777.257 1255.92H818.517C801.569 1283.12 800.86 1310.45 810.675 1337.86C812.493 1344.42 817.408 1353.64 837.622 1376.07C853.106 1392.89 885.029 1410.82 886.632 1445.57C889.004 1468.99 868.39 1479.36 850.487 1468.12C842.46 1463.44 842.121 1446.25 843.014 1427.08L803.726 1427.13C803.187 1448.05 803.187 1468.55 811.568 1482.65L811.923 1483H783.573C788.55 1474.24 791.4 1464.14 791.4 1453.41V1294.56C791.4 1279.88 786.069 1266.39 777.272 1255.92H777.257ZM726.228 1275.32H731.251C741.836 1275.32 750.479 1283.98 750.479 1294.56V1453.41C750.479 1464.01 741.82 1472.66 731.251 1472.66H726.228C715.643 1472.66 707 1463.99 707 1453.41V1294.56C707 1283.97 715.659 1275.32 726.228 1275.32ZM864.646 1238.62L874.537 1227H898.495L877.079 1252.07H852.212L829.333 1227H854.2L864.646 1238.62Z" fill="#0F74E3" fill-opacity="0.15"/>
<path fill-rule="evenodd" clip-rule="evenodd" d="M951.026 1493.1V1370.48C956.384 1377.08 962.881 1384.63 970.749 1393.38C996.763 1421.69 1050.39 1451.88 1053.09 1510.39C1057.05 1549.81 1023.27 1566.74 993.165 1547.79C981.673 1541.07 981.802 1519.32 983.018 1493.1H951H951.026ZM1168.97 1588.31H1099.65C1128.12 1542.52 1129.31 1496.5 1112.83 1450.35C1109.77 1439.32 1101.52 1423.8 1067.56 1386.03C1041.54 1357.71 987.911 1327.53 985.219 1269.02C981.232 1229.59 1015.87 1212.13 1045.94 1231.05C1059.43 1238.94 1060 1267.88 1058.5 1300.14L1124.5 1300.06C1125.41 1264.84 1125.41 1230.32 1111.33 1206.6L1110.73 1206H1158.36C1150 1220.74 1145.21 1237.74 1145.21 1255.81V1523.26C1145.21 1547.97 1154.16 1570.68 1168.94 1588.31H1168.97ZM1254.7 1555.65H1246.26C1228.48 1555.65 1213.96 1541.07 1213.96 1523.26V1255.81C1213.96 1237.98 1228.5 1223.42 1246.26 1223.42H1254.7C1272.48 1223.42 1287 1238 1287 1255.81V1523.26C1287 1541.09 1272.45 1555.65 1254.7 1555.65ZM1022.16 1617.43L1005.54 1637H965.288L1001.27 1594.8H1043.04L1081.48 1637H1039.7L1022.16 1617.43Z" fill="#0F74E3" fill-opacity="0.15"/>
<path fill-rule="evenodd" clip-rule="evenodd" d="M469.011 1594.44V1648.49C471.355 1645.58 474.198 1642.25 477.64 1638.4C489.021 1625.91 512.485 1612.61 513.663 1586.82C515.395 1569.43 500.617 1561.97 487.447 1570.33C482.419 1573.29 482.476 1582.88 483.008 1594.44H469H469.011ZM564.361 1552.47H534.035C546.492 1572.65 547.013 1592.94 539.799 1613.28C538.463 1618.14 534.85 1624.99 519.993 1641.64C508.612 1654.12 485.148 1667.43 483.971 1693.22C482.227 1710.6 497.379 1718.3 510.537 1709.96C516.437 1706.48 516.686 1693.72 516.03 1679.5L544.906 1679.53C545.303 1695.06 545.303 1710.28 539.142 1720.74L538.882 1721H559.719C556.061 1714.5 553.966 1707.01 553.966 1699.04V1581.14C553.966 1570.25 557.884 1560.24 564.35 1552.47H564.361ZM601.867 1566.86H598.176C590.396 1566.86 584.043 1573.29 584.043 1581.14V1699.04C584.043 1706.9 590.407 1713.32 598.176 1713.32H601.867C609.647 1713.32 616 1706.89 616 1699.04V1581.14C616 1573.28 609.636 1566.86 601.867 1566.86ZM500.13 1539.63L492.86 1531H475.251L490.992 1549.61H509.269L526.086 1531H507.808L500.13 1539.63Z" fill="#0F74E3" fill-opacity="0.15"/>
<path fill-rule="evenodd" clip-rule="evenodd" d="M1029.99 787.734V823.296C1028.45 821.384 1026.57 819.193 1024.3 816.656C1016.79 808.444 1001.31 799.689 1000.53 782.721C999.385 771.286 1009.14 766.378 1017.83 771.873C1021.15 773.823 1021.11 780.131 1020.76 787.734H1030H1029.99ZM967.074 760.122H987.086C978.866 773.401 978.522 786.748 983.282 800.133C984.164 803.332 986.548 807.834 996.352 818.787C1003.86 827 1019.34 835.755 1020.12 852.722C1021.27 864.157 1011.27 869.223 1002.59 863.736C998.698 861.447 998.533 853.054 998.967 843.696L979.912 843.719C979.651 853.934 979.651 863.946 983.716 870.827L983.887 871H970.138C972.552 866.724 973.934 861.793 973.934 856.554V778.987C973.934 771.821 971.349 765.234 967.082 760.122H967.074ZM942.326 769.592H944.762C949.895 769.592 954.087 773.823 954.087 778.987V856.554C954.087 861.726 949.888 865.949 944.762 865.949H942.326C937.192 865.949 933 861.718 933 856.554V778.987C933 773.815 937.2 769.592 942.326 769.592ZM1009.46 751.676L1014.26 746H1025.88L1015.49 758.24H1003.43L992.331 746H1004.39L1009.46 751.676Z" fill="#0F74E3" fill-opacity="0.15"/>
<path fill-rule="evenodd" clip-rule="evenodd" d="M1055 798.712V822.325C1056.03 821.055 1057.26 819.6 1058.76 817.916C1063.72 812.463 1073.93 806.649 1074.45 795.383C1075.2 787.79 1068.77 784.531 1063.03 788.18C1060.84 789.474 1060.87 793.663 1061.1 798.712H1055H1055ZM1096.52 780.377H1083.31C1088.74 789.195 1088.96 798.057 1085.82 806.944C1085.24 809.069 1083.67 812.058 1077.2 819.33C1072.25 824.784 1062.03 830.597 1061.52 841.864C1060.76 849.456 1067.36 852.82 1073.08 849.176C1075.65 847.657 1075.76 842.084 1075.48 835.87L1088.05 835.885C1088.22 842.668 1088.22 849.316 1085.54 853.885L1085.42 854H1094.5C1092.9 851.161 1091.99 847.887 1091.99 844.408V792.903C1091.99 788.145 1093.7 783.771 1096.51 780.377H1096.52ZM1112.85 786.665H1111.24C1107.85 786.665 1105.09 789.474 1105.09 792.903V844.408C1105.09 847.842 1107.86 850.646 1111.24 850.646H1112.85C1116.23 850.646 1119 847.837 1119 844.408V792.903C1119 789.469 1116.23 786.665 1112.85 786.665ZM1068.55 774.769L1065.39 771H1057.72L1064.57 779.128H1072.53L1079.85 771H1071.9L1068.55 774.769Z" fill="#0F74E3" fill-opacity="0.15"/>
<path fill-rule="evenodd" clip-rule="evenodd" d="M941.014 1046.54V981.394C943.852 984.897 947.294 988.91 951.463 993.557C965.243 1008.6 993.655 1024.64 995.081 1055.73C997.179 1076.68 979.285 1085.67 963.337 1075.6C957.249 1072.03 957.318 1060.47 957.962 1046.54H941H941.014ZM1056.47 1097.13H1019.75C1034.83 1072.8 1035.46 1048.35 1026.73 1023.83C1025.11 1017.97 1020.74 1009.72 1002.75 989.655C988.966 974.609 960.554 958.57 959.128 927.485C957.016 906.536 975.363 897.255 991.297 907.308C998.441 911.501 998.743 926.878 997.947 944.02L1032.91 943.979C1033.39 925.264 1033.39 906.922 1025.93 894.317L1025.62 894H1050.85C1046.42 901.833 1043.88 910.866 1043.88 920.465V1062.57C1043.88 1075.7 1048.63 1087.76 1056.46 1097.13H1056.47ZM1101.89 1079.78H1097.42C1088 1079.78 1080.3 1072.03 1080.3 1062.57V920.465C1080.3 910.991 1088.01 903.254 1097.42 903.254H1101.89C1111.31 903.254 1119 911.004 1119 920.465V1062.57C1119 1072.04 1111.29 1079.78 1101.89 1079.78ZM978.695 1112.6L969.892 1123H948.569L967.629 1100.58H989.761L1010.12 1123H987.992L978.695 1112.6Z" fill="#0F74E3" fill-opacity="0.15"/>
<path fill-rule="evenodd" clip-rule="evenodd" d="M689.97 433.267V573.237C683.815 565.711 676.351 557.089 667.312 547.104C637.427 514.778 575.815 480.319 572.722 413.533C568.173 368.526 606.978 349.207 641.56 370.837C654.763 378.511 654.614 403.341 653.217 433.267H690H689.97ZM439.595 324.585H519.227C486.518 376.852 485.15 429.385 504.092 482.067C507.601 494.659 517.087 512.378 556.1 555.489C585.984 587.815 647.597 622.274 650.689 689.059C655.269 734.067 615.482 754.007 580.929 732.407C565.437 723.4 564.783 690.363 566.507 653.533L490.681 653.622C489.64 693.83 489.64 733.237 505.817 760.319L506.501 761H451.787C461.391 744.17 466.893 724.763 466.893 704.141V398.837C466.893 370.63 456.604 344.704 439.625 324.585H439.595ZM341.11 361.859H350.804C371.233 361.859 387.914 378.511 387.914 398.837V704.141C387.914 724.496 371.203 741.118 350.804 741.118H341.11C320.682 741.118 304 724.467 304 704.141V398.837C304 378.481 320.711 361.859 341.11 361.859ZM608.256 291.341L627.347 269H673.586L632.253 317.178H584.26L540.102 269H588.096L608.256 291.341Z" fill="#DD9827" fill-opacity="0.05"/>
<path fill-rule="evenodd" clip-rule="evenodd" d="M166.008 560.741V599.716C167.715 597.621 169.783 595.22 172.289 592.439C180.573 583.438 197.652 573.843 198.51 555.246C199.771 542.714 189.014 537.334 179.428 543.357C175.768 545.494 175.809 552.408 176.196 560.741H166H166.008ZM235.413 530.478H213.338C222.406 545.032 222.785 559.66 217.534 574.33C216.561 577.836 213.932 582.77 203.117 594.774C194.833 603.776 177.754 613.371 176.897 631.968C175.628 644.5 186.657 650.053 196.235 644.038C200.529 641.53 200.711 632.331 200.232 622.075L221.252 622.1C221.54 633.296 221.54 644.269 217.056 651.81L216.866 652H232.033C229.371 647.314 227.846 641.91 227.846 636.167V551.154C227.846 543.299 230.698 536.08 235.405 530.478H235.413ZM262.713 540.857H260.026C254.363 540.857 249.739 545.494 249.739 551.154V636.167C249.739 641.835 254.371 646.464 260.026 646.464H262.713C268.376 646.464 273 641.827 273 636.167V551.154C273 545.486 268.368 540.857 262.713 540.857ZM188.66 521.221L183.368 515H170.55L182.008 528.415H195.311L207.552 515H194.248L188.66 521.221Z" fill="#DD9827" fill-opacity="0.05"/>
<path fill-rule="evenodd" clip-rule="evenodd" d="M272.989 376.435V429.635C270.661 426.774 267.838 423.497 264.418 419.702C253.115 407.416 229.811 394.318 228.641 368.934C226.92 351.828 241.598 344.485 254.678 352.706C259.672 355.623 259.616 365.06 259.087 376.435H273H272.989ZM178.287 335.127H208.407C196.035 354.992 195.518 374.959 202.682 394.983C204.01 399.769 207.597 406.503 222.354 422.889C233.657 435.176 256.961 448.273 258.131 473.657C259.863 490.763 244.815 498.342 231.745 490.132C225.885 486.709 225.638 474.152 226.29 460.154L197.61 460.188C197.216 475.47 197.216 490.448 203.335 500.741L203.593 501H182.899C186.531 494.603 188.612 487.227 188.612 479.389V363.349C188.612 352.628 184.721 342.774 178.299 335.127H178.287ZM141.037 349.294H144.703C152.43 349.294 158.74 355.623 158.74 363.349V479.389C158.74 487.126 152.419 493.443 144.703 493.443H141.037C133.31 493.443 127 487.114 127 479.389V363.349C127 355.612 133.321 349.294 141.037 349.294ZM242.081 322.491L249.302 314H266.792L251.158 332.311H233.005L216.303 314H234.456L242.081 322.491Z" fill="#DD9827" fill-opacity="0.05"/>
<path fill-rule="evenodd" clip-rule="evenodd" d="M678.012 669.773V725.818C680.468 722.805 683.445 719.353 687.052 715.355C698.975 702.411 723.556 688.613 724.79 661.872C726.605 643.851 711.123 636.116 697.326 644.776C692.058 647.849 692.118 657.791 692.675 669.773H678H678.012ZM777.902 626.257H746.132C759.182 647.185 759.728 668.219 752.171 689.313C750.771 694.355 746.986 701.45 731.421 718.712C719.498 731.656 694.917 745.453 693.684 772.194C691.857 790.216 707.73 798.2 721.515 789.551C727.696 785.945 727.957 772.716 727.269 757.97L757.521 758.005C757.936 774.105 757.936 789.884 751.482 800.727L751.21 801H773.038C769.207 794.261 767.012 786.49 767.012 778.233V655.988C767.012 644.693 771.117 634.312 777.891 626.257H777.902ZM817.194 641.181H813.327C805.177 641.181 798.521 647.849 798.521 655.988V778.233C798.521 786.384 805.189 793.039 813.327 793.039H817.194C825.345 793.039 832 786.372 832 778.233V655.988C832 647.837 825.333 641.181 817.194 641.181ZM710.613 612.945L702.996 604H684.549L701.039 623.291H720.187L737.804 604H718.656L710.613 612.945Z" fill="#DD9827" fill-opacity="0.05"/>
<path fill-rule="evenodd" clip-rule="evenodd" d="M663.985 856.472V929.302C660.795 925.386 656.928 920.9 652.244 915.704C636.76 898.884 604.837 880.954 603.234 846.204C600.877 822.786 620.983 812.734 638.902 823.988C645.743 827.981 645.666 840.901 644.941 856.472H664H663.985ZM534.257 799.922H575.517C558.569 827.118 557.86 854.452 567.675 881.864C569.493 888.416 574.408 897.636 594.622 920.067C610.106 936.887 642.029 954.817 643.632 989.567C646.004 1012.99 625.39 1023.36 607.487 1012.12C599.46 1007.44 599.121 990.246 600.014 971.082L560.726 971.129C560.187 992.05 560.187 1012.55 568.568 1026.65L568.923 1027H540.573C545.55 1018.24 548.4 1008.14 548.4 997.415V838.557C548.4 823.88 543.069 810.391 534.272 799.922H534.257ZM483.228 819.317H488.251C498.836 819.317 507.479 827.981 507.479 838.557V997.415C507.479 1008.01 498.82 1016.66 488.251 1016.66H483.228C472.643 1016.66 464 1007.99 464 997.415V838.557C464 827.966 472.659 819.317 483.228 819.317ZM621.646 782.624L631.537 771H655.495L634.079 796.068H609.212L586.333 771H611.2L621.646 782.624Z" fill="#DD9827" fill-opacity="0.05"/>
<path fill-rule="evenodd" clip-rule="evenodd" d="M304.008 805.743V845.572C305.747 843.43 307.854 840.977 310.407 838.135C318.846 828.937 336.244 819.131 337.117 800.127C338.402 787.32 327.444 781.823 317.679 787.978C313.95 790.162 313.992 797.227 314.387 805.743H304H304.008ZM374.71 774.817H352.223C361.46 789.69 361.846 804.638 356.497 819.629C355.507 823.212 352.828 828.254 341.811 840.521C333.372 849.72 315.974 859.525 315.101 878.529C313.808 891.336 325.043 897.01 334.8 890.864C339.175 888.301 339.359 878.9 338.872 868.42L360.284 868.445C360.578 879.886 360.578 891.1 356.01 898.806L355.817 899H371.267C368.555 894.211 367.002 888.689 367.002 882.821V795.945C367.002 787.919 369.907 780.542 374.702 774.817H374.71ZM402.521 785.423H399.783C394.015 785.423 389.304 790.162 389.304 795.945V882.821C389.304 888.613 394.023 893.343 399.783 893.343H402.521C408.289 893.343 413 888.604 413 882.821V795.945C413 790.153 408.281 785.423 402.521 785.423ZM327.083 765.357L321.692 759H308.635L320.307 772.709H333.859L346.329 759H332.776L327.083 765.357Z" fill="#DD9827" fill-opacity="0.05"/>
<path fill-rule="evenodd" clip-rule="evenodd" d="M289.978 837.202V943.033C285.353 937.343 279.746 930.823 272.954 923.274C250.502 898.832 204.213 872.777 201.89 822.281C198.472 788.251 227.626 773.645 253.608 789.999C263.527 795.801 263.415 814.575 262.365 837.202H290H289.978ZM101.872 755.028H161.699C137.125 794.547 136.097 834.267 150.328 874.099C152.964 883.62 160.091 897.017 189.401 929.614C211.853 954.055 258.143 980.11 260.466 1030.61C263.906 1064.64 234.015 1079.71 208.056 1063.38C196.416 1056.57 195.925 1031.59 197.221 1003.74L140.253 1003.81C139.471 1034.21 139.471 1064.01 151.624 1084.48L152.138 1085H111.032C118.247 1072.28 122.38 1057.6 122.38 1042.01V811.169C122.38 789.842 114.651 770.239 101.894 755.028H101.872ZM27.8807 783.211H35.1637C50.5115 783.211 63.0444 795.801 63.0444 811.169V1042.01C63.0444 1057.4 50.4892 1069.97 35.1637 1069.97H27.8807C12.5329 1069.97 0 1057.38 0 1042.01V811.169C0 795.779 12.5553 783.211 27.8807 783.211ZM228.586 729.892L242.929 713H277.668L246.615 749.427H210.558L177.382 713H213.44L228.586 729.892Z" fill="#DD9827" fill-opacity="0.05"/>
<path fill-rule="evenodd" clip-rule="evenodd" d="M245.016 138.143V213.249C248.301 209.211 252.284 204.584 257.108 199.226C273.057 181.881 305.938 163.39 307.589 127.554C310.017 103.404 289.307 93.0381 270.851 104.644C263.805 108.762 263.885 122.085 264.63 138.143H245H245.016ZM378.636 79.8262H336.138C353.594 107.872 354.324 136.06 344.215 164.328C342.343 171.085 337.28 180.593 316.46 203.726C300.511 221.071 267.63 239.562 265.979 275.398C263.535 299.548 284.769 310.248 303.209 298.658C311.477 293.824 311.826 276.097 310.905 256.335L351.372 256.383C351.928 277.957 351.928 299.103 343.295 313.634L342.93 314H372.129C367.004 304.969 364.068 294.556 364.068 283.49V119.669C364.068 104.533 369.559 90.6215 378.62 79.8262H378.636ZM431.195 99.8269H426.022C415.119 99.8269 406.217 108.762 406.217 119.669V283.49C406.217 294.413 415.135 303.332 426.022 303.332H431.195C442.097 303.332 451 294.397 451 283.49V119.669C451 108.746 442.081 99.8269 431.195 99.8269ZM288.625 61.9877L278.437 50H253.76L275.818 75.8515H301.431L324.997 50H299.384L288.625 61.9877Z" fill="#DD9827" fill-opacity="0.05"/>
<path fill-rule="evenodd" clip-rule="evenodd" d="M1326.97 143.9V266.517C1321.62 259.924 1315.12 252.371 1307.25 243.623C1281.24 215.305 1227.61 185.118 1224.91 126.614C1220.95 87.1863 1254.73 70.263 1284.83 89.2109C1296.33 95.9335 1296.2 117.685 1294.98 143.9H1327H1326.97ZM1109.03 48.6935H1178.35C1149.88 94.48 1148.69 140.5 1165.17 186.65C1168.23 197.681 1176.48 213.203 1210.44 250.969C1236.46 279.287 1290.09 309.474 1292.78 367.979C1296.77 407.406 1262.13 424.874 1232.06 405.952C1218.57 398.062 1218 369.121 1219.5 336.857L1153.5 336.935C1152.59 372.158 1152.59 406.679 1166.67 430.403L1167.27 431H1119.64C1128 416.257 1132.79 399.256 1132.79 381.19V113.739C1132.79 89.0292 1123.84 66.3177 1109.06 48.6935H1109.03ZM1023.3 81.3462H1031.74C1049.52 81.3462 1064.04 95.9335 1064.04 113.739V381.19C1064.04 399.022 1049.5 413.583 1031.74 413.583H1023.3C1005.52 413.583 991 398.996 991 381.19V113.739C991 95.9076 1005.55 81.3462 1023.3 81.3462ZM1255.84 19.5709L1272.46 0H1312.71L1276.73 42.2045H1234.96L1196.52 0H1238.3L1255.84 19.5709Z" fill="#DD9827" fill-opacity="0.05"/>
<path fill-rule="evenodd" clip-rule="evenodd" d="M797.013 130.117V191.567C799.692 188.263 802.94 184.478 806.875 180.094C819.881 165.902 846.697 150.774 848.043 121.454C850.023 101.694 833.134 93.213 818.083 102.709C812.336 106.078 812.401 116.979 813.009 130.117H797H797.013ZM905.985 82.4033H871.326C885.562 105.35 886.157 128.413 877.913 151.541C876.386 157.07 872.258 164.849 855.278 183.776C842.271 197.967 815.455 213.096 814.109 242.416C812.116 262.176 829.433 270.93 844.471 261.447C851.214 257.493 851.499 242.989 850.748 226.82L883.75 226.859C884.203 244.511 884.203 261.811 877.163 273.701L876.865 274H900.678C896.498 266.611 894.104 258.091 894.104 249.037V115.002C894.104 102.618 898.582 91.2358 905.972 82.4033H905.985ZM948.848 98.7675H944.629C935.738 98.7675 928.478 106.078 928.478 115.002V249.037C928.478 257.974 935.751 265.272 944.629 265.272H948.848C957.74 265.272 965 257.961 965 249.037V115.002C965 106.065 957.727 98.7675 948.848 98.7675ZM832.578 67.8081L824.269 58H804.144L822.133 79.1512H843.022L862.241 58H841.352L832.578 67.8081Z" fill="#DD9827" fill-opacity="0.05"/>
<path fill-rule="evenodd" clip-rule="evenodd" d="M563.994 176.059V206.784C562.654 205.132 561.03 203.239 559.063 201.047C552.559 193.951 539.151 186.387 538.478 171.727C537.488 161.847 545.933 157.607 553.459 162.354C556.332 164.039 556.3 169.489 555.995 176.059H564H563.994ZM509.508 152.202H526.837C519.719 163.675 519.421 175.207 523.543 186.771C524.307 189.535 526.371 193.424 534.861 202.888C541.364 209.984 554.772 217.548 555.445 232.208C556.442 242.088 547.784 246.465 540.264 241.724C536.893 239.746 536.751 232.494 537.126 224.41L520.625 224.429C520.398 233.255 520.398 241.906 523.919 247.85L524.067 248H512.161C514.251 244.306 515.448 240.046 515.448 235.519V168.501C515.448 162.309 513.209 156.618 509.514 152.202H509.508ZM488.076 160.384H490.185C494.631 160.384 498.261 164.039 498.261 168.501V235.519C498.261 239.987 494.624 243.636 490.185 243.636H488.076C483.63 243.636 480 239.98 480 235.519V168.501C480 164.033 483.637 160.384 488.076 160.384ZM546.211 144.904L550.366 140H560.428L551.433 150.576H540.989L531.38 140H541.824L546.211 144.904Z" fill="#DD9827" fill-opacity="0.05"/>
<path fill-rule="evenodd" clip-rule="evenodd" d="M810.99 317.093V365.741C808.869 363.125 806.297 360.128 803.183 356.658C792.886 345.423 771.656 333.446 770.591 310.234C769.023 294.591 782.394 287.877 794.31 295.395C798.859 298.062 798.808 306.692 798.326 317.093H811H810.99ZM724.721 279.319H752.159C740.888 297.485 740.417 315.744 746.944 334.054C748.153 338.43 751.421 344.589 764.863 359.572C775.16 370.808 796.39 382.784 797.455 405.996C799.033 421.639 785.324 428.57 773.419 421.062C768.081 417.932 767.855 406.449 768.449 393.649L742.323 393.68C741.964 407.654 741.964 421.351 747.538 430.763L747.774 431H728.921C732.231 425.151 734.126 418.405 734.126 411.238V305.126C734.126 295.322 730.581 286.312 724.731 279.319H724.721ZM690.787 292.274H694.127C701.166 292.274 706.913 298.062 706.913 305.126V411.238C706.913 418.313 701.155 424.09 694.127 424.09H690.787C683.748 424.09 678 418.302 678 411.238V305.126C678 298.051 683.758 292.274 690.787 292.274ZM782.834 267.765L789.412 260H805.344L791.103 276.745H774.566L759.351 260H775.888L782.834 267.765Z" fill="#DD9827" fill-opacity="0.05"/>
<path fill-rule="evenodd" clip-rule="evenodd" d="M829.004 322.041V343.378C829.929 342.23 831.051 340.916 832.409 339.394C836.9 334.466 846.157 329.213 846.622 319.033C847.306 312.172 841.475 309.227 836.278 312.524C834.295 313.694 834.317 317.479 834.527 322.041H829H829.004ZM866.626 305.473H854.66C859.575 313.441 859.781 321.449 856.934 329.48C856.407 331.399 854.982 334.1 849.12 340.672C844.629 345.6 835.371 350.853 834.907 361.033C834.219 367.894 840.197 370.934 845.389 367.641C847.717 366.268 847.815 361.232 847.556 355.618L858.949 355.631C859.106 361.761 859.106 367.768 856.675 371.896L856.572 372H864.794C863.351 369.435 862.524 366.476 862.524 363.332V316.792C862.524 312.492 864.07 308.54 866.621 305.473H866.626ZM881.424 311.155H879.967C876.898 311.155 874.391 313.694 874.391 316.792V363.332C874.391 366.435 876.902 368.969 879.967 368.969H881.424C884.493 368.969 887 366.431 887 363.332V316.792C887 313.689 884.489 311.155 881.424 311.155ZM841.283 300.406L838.414 297H831.466L837.677 304.344H844.888L851.524 297H844.312L841.283 300.406Z" fill="#DD9827" fill-opacity="0.05"/>
<path fill-rule="evenodd" clip-rule="evenodd" d="M711.008 493.07V529.769C712.602 527.796 714.536 525.536 716.878 522.917C724.62 514.442 740.582 505.407 741.383 487.896C742.562 476.095 732.508 471.03 723.549 476.701C720.129 478.713 720.167 485.223 720.529 493.07H711H711.008ZM775.872 464.574H755.242C763.716 478.278 764.07 492.052 759.163 505.865C758.254 509.167 755.796 513.812 745.689 525.116C737.947 533.592 721.985 542.627 721.184 560.137C719.998 571.938 730.305 577.167 739.257 571.503C743.27 569.141 743.44 560.479 742.993 550.823L762.637 550.846C762.907 561.388 762.907 571.721 758.716 578.821L758.539 579H772.713C770.225 574.587 768.8 569.499 768.8 564.092V484.043C768.8 476.647 771.465 469.849 775.864 464.574H775.872ZM801.386 474.347H798.875C793.582 474.347 789.261 478.713 789.261 484.043V564.092C789.261 569.429 793.59 573.787 798.875 573.787H801.386C806.678 573.787 811 569.421 811 564.092V484.043C811 478.706 806.671 474.347 801.386 474.347ZM732.177 455.858L727.231 450H715.252L725.96 462.632H738.394L749.834 450H737.4L732.177 455.858Z" fill="#DD9827" fill-opacity="0.05"/>
<path fill-rule="evenodd" clip-rule="evenodd" d="M1080.98 531.156V613.09C1077.43 608.685 1073.11 603.637 1067.89 597.792C1050.63 578.87 1015.03 558.699 1013.25 519.605C1010.62 493.259 1033.04 481.951 1053.02 494.612C1060.64 499.104 1060.56 513.638 1059.75 531.156H1081H1080.98ZM936.336 467.538H982.341C963.444 498.133 962.654 528.884 973.597 559.722C975.624 567.093 981.104 577.465 1003.64 602.701C1020.91 621.623 1056.5 641.795 1058.29 680.888C1060.93 707.234 1037.95 718.907 1017.99 706.263C1009.04 700.99 1008.66 681.651 1009.66 660.093L965.849 660.145C965.248 683.681 965.248 706.749 974.594 722.601L974.989 723H943.379C948.928 713.149 952.106 701.788 952.106 689.717V511.002C952.106 494.491 946.162 479.314 936.353 467.538H936.336ZM879.439 489.357H885.04C896.842 489.357 906.479 499.104 906.479 511.002V689.717C906.479 701.632 896.824 711.362 885.04 711.362H879.439C867.637 711.362 858 701.615 858 689.717V511.002C858 499.087 867.655 489.357 879.439 489.357ZM1033.78 448.078L1044.8 435H1071.52L1047.64 463.202H1019.91L994.401 435H1022.13L1033.78 448.078Z" fill="#DD9827" fill-opacity="0.05"/>
<path fill-rule="evenodd" clip-rule="evenodd" d="M1102.05 723.41V938.486C1111.37 926.922 1122.69 913.673 1136.39 898.33C1181.68 848.659 1275.05 795.709 1279.74 693.088C1286.63 623.93 1227.82 594.246 1175.41 627.481C1155.4 639.273 1155.63 677.426 1157.75 723.41H1102H1102.05ZM1481.5 556.411H1360.81C1410.39 636.724 1412.46 717.446 1383.75 798.395C1378.43 817.745 1364.06 844.971 1304.93 911.215C1259.64 960.886 1166.26 1013.84 1161.58 1116.46C1154.64 1185.61 1214.94 1216.26 1267.3 1183.07C1290.78 1169.22 1291.77 1118.46 1289.16 1061.87L1404.08 1062C1405.65 1123.79 1405.65 1184.34 1381.14 1225.95L1380.1 1227H1463.02C1448.47 1201.14 1440.13 1171.32 1440.13 1139.63V670.506C1440.13 627.163 1455.72 587.325 1481.45 556.411H1481.5ZM1630.76 613.686H1616.07C1585.11 613.686 1559.82 639.273 1559.82 670.506V1139.63C1559.82 1170.91 1585.15 1196.45 1616.07 1196.45H1630.76C1661.72 1196.45 1687 1170.86 1687 1139.63V670.506C1687 639.228 1661.67 613.686 1630.76 613.686ZM1225.89 505.328L1196.95 471H1126.88L1189.52 545.029H1262.25L1329.18 471H1256.44L1225.89 505.328Z" fill="#DD9827" fill-opacity="0.05"/>
<path fill-rule="evenodd" clip-rule="evenodd" d="M248.714 1766.04H448.713C437.959 1774.72 425.639 1785.24 411.372 1797.98C365.182 1840.09 315.945 1926.92 220.518 1931.28C156.209 1937.69 128.605 1883.01 159.511 1834.27C170.476 1815.66 205.954 1815.87 248.714 1817.84L248.714 1766V1766.04ZM93.4235 2118.9L93.4235 2006.67C168.105 2052.77 243.168 2054.7 318.443 2028.01C336.436 2023.06 361.753 2009.69 423.353 1954.71C469.542 1912.59 518.78 1825.76 614.207 1821.4C678.516 1814.95 707.009 1871.02 676.145 1919.72C663.275 1941.55 616.069 1942.47 563.445 1940.04L563.572 2046.91C621.023 2048.37 677.331 2048.37 716.026 2025.57L717 2024.61V2101.72C692.953 2088.18 665.222 2080.43 635.756 2080.43H199.519C159.215 2080.43 122.17 2094.93 93.4235 2118.86V2118.9ZM146.683 2257.7V2244.04C146.683 2215.25 170.476 2191.74 199.519 2191.74H635.756C664.841 2191.74 688.592 2215.29 688.592 2244.04V2257.7C688.592 2286.49 664.799 2310 635.756 2310H199.519C170.434 2310 146.683 2286.45 146.683 2257.7ZM45.9218 1881.2L14 1854.3L14 1789.13L82.8394 1847.38L82.8394 1915.02L14 1977.26L14 1909.62L45.9218 1881.2Z" fill="#DD9827" fill-opacity="0.05"/>
<path fill-rule="evenodd" clip-rule="evenodd" d="M1092.05 2123.97H943.83C951.8 2117.54 960.93 2109.75 971.504 2100.31C1005.74 2069.11 1042.23 2004.79 1112.95 2001.56C1160.61 1996.81 1181.06 2037.32 1158.16 2073.43C1150.03 2087.21 1123.74 2087.06 1092.05 2085.6V2124V2123.97ZM1207.14 1862.57V1945.71C1151.79 1911.56 1096.16 1910.13 1040.37 1929.9C1027.04 1933.57 1008.28 1943.47 962.625 1984.2C928.393 2015.4 891.903 2079.73 821.181 2082.96C773.521 2087.74 752.405 2046.2 775.278 2010.13C784.816 1993.95 819.801 1993.27 858.801 1995.07L858.707 1915.9C816.13 1914.82 774.399 1914.82 745.722 1931.7L745 1932.42V1875.3C762.822 1885.32 783.373 1891.07 805.211 1891.07H1128.51C1158.38 1891.07 1185.83 1880.32 1207.14 1862.6V1862.57ZM1167.67 1759.74V1769.87C1167.67 1791.19 1150.03 1808.61 1128.51 1808.61H805.211C783.655 1808.61 766.053 1791.16 766.053 1769.87V1759.74C766.053 1738.42 783.687 1721 805.211 1721H1128.51C1150.07 1721 1167.67 1738.45 1167.67 1759.74ZM1242.34 2038.66L1266 2058.59V2106.86L1214.98 2063.71V2013.6L1266 1967.5V2017.61L1242.34 2038.66Z" fill="#DD9827" fill-opacity="0.05"/>
<path fill-rule="evenodd" clip-rule="evenodd" d="M880.985 986.534V917.118C877.972 920.851 874.317 925.127 869.891 930.079C855.258 946.11 825.091 963.2 823.576 996.321C821.349 1018.64 840.349 1028.22 857.282 1017.5C863.747 1013.69 863.674 1001.38 862.99 986.534H881H880.985ZM758.392 1040.43H797.383C781.368 1014.51 780.698 988.459 789.972 962.333C791.691 956.088 796.335 947.3 815.437 925.92C830.07 909.889 860.238 892.799 861.752 859.678C863.994 837.357 844.513 827.468 827.595 838.18C820.009 842.647 819.689 859.031 820.533 877.296L783.406 877.252C782.896 857.312 782.896 837.769 790.817 824.338L791.152 824H764.362C769.065 832.346 771.758 841.971 771.758 852.198V1003.61C771.758 1017.6 766.721 1030.46 758.407 1040.43H758.392ZM710.171 1021.95H714.917C724.92 1021.95 733.088 1013.69 733.088 1003.61V852.198C733.088 842.103 724.905 833.86 714.917 833.86H710.171C700.168 833.86 692 842.118 692 852.198V1003.61C692 1013.7 700.183 1021.95 710.171 1021.95ZM840.975 1056.92L850.323 1068H872.963L852.725 1044.11H829.226L807.604 1068H831.104L840.975 1056.92Z" fill="#DD9827" fill-opacity="0.05"/>
<path fill-rule="evenodd" clip-rule="evenodd" d="M199.03 1380.73L199.03 1240.76C205.185 1248.29 212.649 1256.91 221.688 1266.9C251.573 1299.22 313.185 1333.68 316.278 1400.47C320.827 1445.47 282.022 1464.79 247.44 1443.16C234.237 1435.49 234.386 1410.66 235.783 1380.73H199H199.03ZM449.405 1489.41H369.773C402.482 1437.15 403.85 1384.61 384.908 1331.93C381.399 1319.34 371.913 1301.62 332.9 1258.51C303.016 1226.19 241.403 1191.73 238.311 1124.94C233.731 1079.93 273.518 1059.99 308.071 1081.59C323.563 1090.6 324.217 1123.64 322.493 1160.47L398.319 1160.38C399.36 1120.17 399.36 1080.76 383.183 1053.68L382.499 1053H437.213C427.609 1069.83 422.107 1089.24 422.107 1109.86L422.107 1415.16C422.107 1443.37 432.396 1469.3 449.375 1489.41H449.405ZM547.89 1452.14H538.196C517.767 1452.14 501.086 1435.49 501.086 1415.16L501.086 1109.86C501.086 1089.5 517.797 1072.88 538.196 1072.88H547.89C568.318 1072.88 585 1089.53 585 1109.86V1415.16C585 1435.52 568.289 1452.14 547.89 1452.14ZM280.744 1522.66L261.653 1545H215.414L256.747 1496.82H304.74L348.898 1545H300.904L280.744 1522.66Z" fill="#DD9827" fill-opacity="0.05"/>
<path fill-rule="evenodd" clip-rule="evenodd" d="M782.986 1570.79V1637.08C780.084 1633.52 776.565 1629.43 772.302 1624.7C758.212 1609.39 729.161 1593.08 727.703 1561.45C725.558 1540.13 743.855 1530.98 760.161 1541.23C766.386 1544.86 766.316 1556.62 765.657 1570.79H783H782.986ZM664.933 1519.32H702.48C687.058 1544.08 686.413 1568.95 695.344 1593.9C696.998 1599.87 701.471 1608.26 719.866 1628.67C733.956 1643.98 763.007 1660.3 764.465 1691.93C766.624 1713.24 747.865 1722.69 731.573 1712.46C724.268 1708.19 723.96 1692.55 724.773 1675.11L689.021 1675.15C688.53 1694.19 688.53 1712.85 696.157 1725.68L696.48 1726H670.682C675.21 1718.03 677.804 1708.84 677.804 1699.07V1554.49C677.804 1541.13 672.953 1528.85 664.947 1519.32H664.933ZM618.498 1536.98H623.068C632.7 1536.98 640.566 1544.86 640.566 1554.49V1699.07C640.566 1708.71 632.686 1716.58 623.068 1716.58H618.498C608.865 1716.58 601 1708.7 601 1699.07V1554.49C601 1544.85 608.88 1536.98 618.498 1536.98ZM744.458 1503.58L753.459 1493H775.261L755.772 1515.82H733.143L712.323 1493H734.952L744.458 1503.58Z" fill="#DD9827" fill-opacity="0.05"/>
<path fill-rule="evenodd" clip-rule="evenodd" d="M613.012 1102.77V1158.82C615.468 1155.81 618.445 1152.35 622.052 1148.35C633.975 1135.41 658.556 1121.61 659.79 1094.87C661.605 1076.85 646.123 1069.12 632.326 1077.78C627.058 1080.85 627.118 1090.79 627.675 1102.77H613H613.012ZM712.902 1059.26H681.132C694.182 1080.18 694.728 1101.22 687.171 1122.31C685.771 1127.36 681.986 1134.45 666.421 1151.71C654.498 1164.66 629.917 1178.45 628.684 1205.19C626.857 1223.22 642.73 1231.2 656.515 1222.55C662.696 1218.94 662.957 1205.72 662.269 1190.97L692.521 1191.01C692.936 1207.1 692.936 1222.88 686.482 1233.73L686.21 1234H708.038C704.207 1227.26 702.012 1219.49 702.012 1211.23V1088.99C702.012 1077.69 706.117 1067.31 712.891 1059.26H712.902ZM752.194 1074.18H748.327C740.177 1074.18 733.521 1080.85 733.521 1088.99V1211.23C733.521 1219.38 740.189 1226.04 748.327 1226.04H752.194C760.345 1226.04 767 1219.37 767 1211.23V1088.99C767 1080.84 760.333 1074.18 752.194 1074.18ZM645.613 1045.95L637.996 1037H619.549L636.039 1056.29H655.187L672.804 1037H653.656L645.613 1045.95Z" fill="#DD9827" fill-opacity="0.05"/>
<path fill-rule="evenodd" clip-rule="evenodd" d="M854.985 1312.47V1385.3C851.795 1381.39 847.928 1376.9 843.244 1371.7C827.76 1354.88 795.837 1336.95 794.234 1302.2C791.877 1278.79 811.983 1268.73 829.902 1279.99C836.743 1283.98 836.666 1296.9 835.941 1312.47H855H854.985ZM725.257 1255.92H766.517C749.569 1283.12 748.86 1310.45 758.675 1337.86C760.493 1344.42 765.408 1353.64 785.622 1376.07C801.106 1392.89 833.029 1410.82 834.632 1445.57C837.004 1468.99 816.39 1479.36 798.487 1468.12C790.46 1463.44 790.121 1446.25 791.014 1427.08L751.726 1427.13C751.187 1448.05 751.187 1468.55 759.568 1482.65L759.923 1483H731.573C736.55 1474.24 739.4 1464.14 739.4 1453.41V1294.56C739.4 1279.88 734.069 1266.39 725.272 1255.92H725.257ZM674.228 1275.32H679.251C689.836 1275.32 698.479 1283.98 698.479 1294.56V1453.41C698.479 1464.01 689.82 1472.66 679.251 1472.66H674.228C663.643 1472.66 655 1463.99 655 1453.41V1294.56C655 1283.97 663.659 1275.32 674.228 1275.32ZM812.646 1238.62L822.537 1227H846.495L825.079 1252.07H800.212L777.333 1227H802.2L812.646 1238.62Z" fill="#DD9827" fill-opacity="0.05"/>
<path fill-rule="evenodd" clip-rule="evenodd" d="M899.026 1493.1V1370.48C904.384 1377.08 910.881 1384.63 918.749 1393.38C944.763 1421.69 998.394 1451.88 1001.09 1510.39C1005.05 1549.81 971.268 1566.74 941.165 1547.79C929.673 1541.07 929.802 1519.32 931.018 1493.1H899H899.026ZM1116.97 1588.31H1047.65C1076.12 1542.52 1077.31 1496.5 1060.83 1450.35C1057.77 1439.32 1049.52 1423.8 1015.56 1386.03C989.542 1357.71 935.911 1327.53 933.219 1269.02C929.232 1229.59 963.865 1212.13 993.942 1231.05C1007.43 1238.94 1008 1267.88 1006.5 1300.14L1072.5 1300.06C1073.41 1264.84 1073.41 1230.32 1059.33 1206.6L1058.73 1206H1106.36C1098 1220.74 1093.21 1237.74 1093.21 1255.81V1523.26C1093.21 1547.97 1102.16 1570.68 1116.94 1588.31H1116.97ZM1202.7 1555.65H1194.26C1176.48 1555.65 1161.96 1541.07 1161.96 1523.26V1255.81C1161.96 1237.98 1176.5 1223.42 1194.26 1223.42H1202.7C1220.48 1223.42 1235 1238 1235 1255.81V1523.26C1235 1541.09 1220.45 1555.65 1202.7 1555.65ZM970.155 1617.43L953.538 1637H913.288L949.267 1594.8H991.043L1029.48 1637H987.704L970.155 1617.43Z" fill="#DD9827" fill-opacity="0.05"/>
<path fill-rule="evenodd" clip-rule="evenodd" d="M417.011 1594.44V1648.49C419.355 1645.58 422.198 1642.25 425.64 1638.4C437.021 1625.91 460.485 1612.61 461.663 1586.82C463.395 1569.43 448.617 1561.97 435.447 1570.33C430.419 1573.29 430.476 1582.88 431.008 1594.44H417H417.011ZM512.361 1552.47H482.035C494.492 1572.65 495.013 1592.94 487.799 1613.28C486.463 1618.14 482.85 1624.99 467.993 1641.64C456.612 1654.12 433.148 1667.43 431.971 1693.22C430.227 1710.6 445.379 1718.3 458.537 1709.96C464.437 1706.48 464.686 1693.72 464.03 1679.5L492.906 1679.53C493.303 1695.06 493.303 1710.28 487.142 1720.74L486.882 1721H507.719C504.061 1714.5 501.966 1707.01 501.966 1699.04V1581.14C501.966 1570.25 505.884 1560.24 512.35 1552.47H512.361ZM549.867 1566.86H546.176C538.396 1566.86 532.043 1573.29 532.043 1581.14V1699.04C532.043 1706.9 538.407 1713.32 546.176 1713.32H549.867C557.647 1713.32 564 1706.89 564 1699.04V1581.14C564 1573.28 557.636 1566.86 549.867 1566.86ZM448.13 1539.63L440.86 1531H423.251L438.992 1549.61H457.269L474.086 1531H455.808L448.13 1539.63Z" fill="#DD9827" fill-opacity="0.05"/>
<path fill-rule="evenodd" clip-rule="evenodd" d="M977.993 787.734V823.296C976.446 821.384 974.57 819.193 972.299 816.656C964.789 808.444 949.306 799.689 948.529 782.721C947.385 771.286 957.137 766.378 965.827 771.873C969.145 773.823 969.108 780.131 968.757 787.734H978H977.993ZM915.074 760.122H935.086C926.866 773.401 926.522 786.748 931.282 800.133C932.164 803.332 934.548 807.834 944.352 818.787C951.861 827 967.344 835.755 968.121 852.722C969.272 864.157 959.274 869.223 950.591 863.736C946.698 861.447 946.533 853.054 946.967 843.696L927.912 843.719C927.651 853.934 927.651 863.946 931.716 870.827L931.887 871H918.138C920.552 866.724 921.934 861.793 921.934 856.554V778.987C921.934 771.821 919.349 765.234 915.082 760.122H915.074ZM890.326 769.592H892.762C897.895 769.592 902.087 773.823 902.087 778.987V856.554C902.087 861.726 897.888 865.949 892.762 865.949H890.326C885.192 865.949 881 861.718 881 856.554V778.987C881 773.815 885.2 769.592 890.326 769.592ZM957.458 751.676L962.256 746H973.875L963.488 758.24H951.428L940.331 746H952.392L957.458 751.676Z" fill="#DD9827" fill-opacity="0.05"/>
<path fill-rule="evenodd" clip-rule="evenodd" d="M1003 798.712V822.325C1004.03 821.055 1005.26 819.6 1006.76 817.916C1011.72 812.463 1021.93 806.649 1022.45 795.383C1023.2 787.79 1016.77 784.531 1011.03 788.18C1008.84 789.474 1008.87 793.663 1009.1 798.712H1003H1003ZM1044.52 780.377H1031.31C1036.74 789.195 1036.96 798.057 1033.82 806.944C1033.24 809.069 1031.67 812.058 1025.2 819.33C1020.25 824.784 1010.03 830.597 1009.52 841.864C1008.76 849.456 1015.36 852.82 1021.08 849.176C1023.65 847.657 1023.76 842.084 1023.48 835.87L1036.05 835.885C1036.22 842.668 1036.22 849.316 1033.54 853.885L1033.42 854H1042.5C1040.9 851.161 1039.99 847.887 1039.99 844.408V792.903C1039.99 788.145 1041.7 783.771 1044.51 780.377H1044.52ZM1060.85 786.665H1059.24C1055.85 786.665 1053.09 789.474 1053.09 792.903V844.408C1053.09 847.842 1055.86 850.646 1059.24 850.646H1060.85C1064.23 850.646 1067 847.837 1067 844.408V792.903C1067 789.469 1064.23 786.665 1060.85 786.665ZM1016.55 774.769L1013.39 771H1005.72L1012.57 779.128H1020.53L1027.85 771H1019.9L1016.55 774.769Z" fill="#DD9827" fill-opacity="0.05"/>
<path fill-rule="evenodd" clip-rule="evenodd" d="M889.014 1046.54V981.394C891.852 984.897 895.294 988.91 899.463 993.557C913.243 1008.6 941.655 1024.64 943.081 1055.73C945.179 1076.68 927.285 1085.67 911.337 1075.6C905.249 1072.03 905.318 1060.47 905.962 1046.54H889H889.014ZM1004.47 1097.13H967.75C982.834 1072.8 983.464 1048.35 974.73 1023.83C973.112 1017.97 968.737 1009.72 950.747 989.655C936.966 974.609 908.554 958.57 907.128 927.485C905.016 906.536 923.363 897.255 939.297 907.308C946.441 911.501 946.743 926.878 945.947 944.02L980.914 943.979C981.394 925.264 981.394 906.922 973.934 894.317L973.619 894H998.85C994.421 901.833 991.884 910.866 991.884 920.465V1062.57C991.884 1075.7 996.628 1087.76 1004.46 1097.13H1004.47ZM1049.89 1079.78H1045.42C1036 1079.78 1028.3 1072.03 1028.3 1062.57V920.465C1028.3 910.991 1036.01 903.254 1045.42 903.254H1049.89C1059.31 903.254 1067 911.004 1067 920.465V1062.57C1067 1072.04 1059.29 1079.78 1049.89 1079.78ZM926.695 1112.6L917.892 1123H896.569L915.629 1100.58H937.761L958.124 1123H935.992L926.695 1112.6Z" fill="#DD9827" fill-opacity="0.05"/>
</svg>
