<svg width="563" height="720" viewBox="0 0 563 720" fill="none" xmlns="http://www.w3.org/2000/svg">
<g clip-path="url(#clip0_115_560)">
<path fill-rule="evenodd" clip-rule="evenodd" d="M563 240.39V445.225C554.021 434.211 543.134 421.593 529.949 406.981C486.357 359.675 396.486 309.247 391.975 211.512C385.338 145.648 441.942 117.377 492.386 149.03C511.645 160.26 511.428 196.596 509.389 240.39H563.043H563ZM197.787 81.3442H313.944C266.232 157.832 264.237 234.71 291.866 311.805C296.985 330.233 310.821 356.163 367.728 419.252C411.32 466.558 501.191 516.986 505.702 614.721C512.382 680.585 454.347 709.767 403.946 678.157C381.348 664.976 380.394 616.629 382.909 562.732L272.305 562.862C270.786 621.702 270.787 679.371 294.382 719.003L295.38 720H215.571C229.581 695.371 237.605 666.97 237.605 636.791V190.005C237.605 148.726 222.598 110.786 197.831 81.3442H197.787ZM54.1313 135.892H68.2713C98.0696 135.892 122.403 160.26 122.403 190.005V636.791C122.403 666.58 98.0262 690.905 68.2713 690.905H54.1313C24.333 690.905 0 666.537 0 636.791V190.005C0 160.217 24.3764 135.892 54.1313 135.892ZM443.807 32.6938L471.653 0H539.101L478.81 70.5041H408.804L344.393 0H414.399L443.807 32.6938Z" fill="#DD9827"/>
</g>
<defs>
<clipPath id="clip0_115_560">
<rect width="563" height="720" fill="white"/>
</clipPath>
</defs>
</svg>
